<svg width="100" height="100" viewBox="0 0 100 100" fill="none" xmlns="http://www.w3.org/2000/svg">
<path d="M21.25 16.25V83.75H42.25H57.75H78.75V16.25H21.25ZM47.75 78.25V72.25H52.25V78.25H47.75ZM73.25 78.25H57.75V66.75H42.25V78.25H26.75V21.75H73.25V78.25Z" fill="black"/>
<path d="M47.25 46.75H31.75V62.25H47.25V46.75ZM41.75 56.75H37.25V52.25H41.75V56.75Z" fill="black"/>
<path d="M67.75 46.75H52.25V62.25H67.75V46.75ZM62.25 56.75H57.75V52.25H62.25V56.75Z" fill="black"/>
<path d="M47.25 26.75H31.75V42.25H47.25V26.75ZM41.75 36.75H37.25V32.25H41.75V36.75Z" fill="black"/>
<path d="M67.75 26.75H52.25V42.25H67.75V26.75ZM62.25 36.75H57.75V32.25H62.25V36.75Z" fill="black"/>
</svg>
