<svg width="100" height="100" viewBox="0 0 100 100" fill="none" xmlns="http://www.w3.org/2000/svg">
<path d="M50 21.25C34.15 21.25 21.25 34.15 21.25 50C21.25 65.85 34.15 78.75 50 78.75C65.85 78.75 78.75 65.85 78.75 50C78.75 34.15 65.85 21.25 50 21.25ZM70.34 38.75H61.87C61.16 34.58 60.05 31.14 58.7 28.44C63.65 30.45 67.76 34.12 70.34 38.75ZM73.25 50C73.25 51.98 73 53.91 72.53 55.75H62.53C62.67 53.94 62.75 52.02 62.75 50C62.75 47.98 62.67 46.06 62.53 44.25H72.53C73 46.09 73.25 48.02 73.25 50ZM50 73.25C48.25 73.25 45.32 69.07 43.78 61.25H56.22C54.68 69.07 51.75 73.25 50 73.25ZM43 55.75C42.84 53.96 42.75 52.05 42.75 50C42.75 47.95 42.85 46.04 43 44.25H57C57.16 46.04 57.25 47.95 57.25 50C57.25 52.05 57.15 53.96 57 55.75H43ZM26.75 50C26.75 48.02 27 46.09 27.47 44.25H37.47C37.33 46.06 37.25 47.98 37.25 50C37.25 52.02 37.33 53.94 37.47 55.75H27.47C27 53.91 26.75 51.98 26.75 50ZM50 26.75C51.75 26.75 54.68 30.93 56.22 38.75H43.78C45.32 30.93 48.25 26.75 50 26.75ZM41.3 28.44C39.95 31.14 38.84 34.58 38.13 38.75H29.66C32.24 34.12 36.35 30.45 41.3 28.44ZM29.66 61.25H38.13C38.84 65.42 39.95 68.86 41.3 71.56C36.35 69.55 32.24 65.88 29.66 61.25ZM58.7 71.56C60.05 68.86 61.16 65.42 61.87 61.25H70.34C67.76 65.88 63.65 69.55 58.7 71.56Z" fill="black"/>
</svg>
