<svg width="100" height="100" viewBox="0 0 100 100" fill="none" xmlns="http://www.w3.org/2000/svg">
<path d="M43.29 50.04C43.29 50.45 43.29 50.77 43.29 51.09C43.29 59.09 43.3 67.1 43.27 75.1C43.27 75.81 43.47 76 44.17 76C47.17 75.96 50.17 75.99 53.17 75.98C53.44 75.98 53.71 75.95 54.03 75.93C54.03 67.28 54.03 58.7 54.03 50.04C54.34 50.04 54.59 50.04 54.84 50.04C56.72 50.04 58.61 50.03 60.49 50.05C60.95 50.06 61.13 49.93 61.17 49.44C61.3 47.89 61.52 46.35 61.68 44.8C61.81 43.56 61.91 42.31 62.04 40.96C59.33 40.96 56.7 40.96 54.14 40.96C54.14 38.91 54.08 36.96 54.16 35.01C54.21 33.89 54.84 33.26 55.99 33.18C57.7 33.05 59.42 33.07 61.14 33.02C61.41 33.01 61.68 33.02 61.95 33.02C61.95 29.96 61.95 27.01 61.95 24.07C61.85 24.04 61.79 24 61.72 24C58.38 24.07 55.02 24.02 51.69 24.26C49.66 24.4 47.78 25.24 46.27 26.71C44.28 28.64 43.57 31.11 43.4 33.76C43.27 35.87 43.31 37.99 43.27 40.11C43.27 40.38 43.25 40.65 43.23 40.98C41.68 40.98 40.19 41 38.71 40.97C38.15 40.96 37.94 41.1 37.94 41.7C37.97 44.24 37.97 46.77 37.94 49.31C37.93 49.87 38.08 50.09 38.68 50.07C40.19 50.02 41.67 50.04 43.29 50.04Z" fill="black"/>
</svg>
