<svg width="100" height="100" viewBox="0 0 100 100" fill="none" xmlns="http://www.w3.org/2000/svg">
<path d="M68.6999 58.9H53.7V63.7H21.2V69.2H53.5999V74H68.5999V69.2H78.6999V63.7H68.6999V58.9ZM63.7 68.9H58.7V63.9H63.7V68.9Z" fill="black"/>
<path d="M41.5 42.8H26.5V47.6H21.3V53.1H26.5V57.8H41.5V53.1H78.7V47.6H41.5V42.8ZM36.5 52.8H31.5V47.8H36.5V52.8Z" fill="black"/>
<path d="M73.6999 31.6V26.7H58.7V31.6H21.2V37.1H58.5999V41.7H73.5999V37.1H78.6999V31.6H73.6999ZM68.6999 36.7H63.7V31.7H68.6999V36.7Z" fill="black"/>
</svg>
