<svg width="100" height="100" viewBox="0 0 100 100" fill="none" xmlns="http://www.w3.org/2000/svg">
<path d="M71 43.8H29C28 43.8 27.2 43.3 26.7 42.5C26.2 41.7 26.2 40.7 26.6 39.8C31 30.8 40 25.3 50 25.3C60 25.3 69 30.9 73.5 39.8C73.9 40.7 73.9 41.7 73.4 42.5C72.9 43.3 72 43.8 71 43.8ZM34 38.3H66C62.1 33.6 56.3 30.8 50 30.8C43.7 30.8 37.9 33.6 34 38.3Z" fill="black"/>
<path d="M71 54.2H29C27.5 54.2 26.2 53 26.2 51.4C26.2 49.8 27.4 48.6 29 48.6H71C72.5 48.6 73.8 49.8 73.8 51.4C73.8 53 72.5 54.2 71 54.2Z" fill="black"/>
<path d="M71 75.3H29C27.5 75.3 26.2 74.1 26.2 72.5V62C26.2 60.5 27.4 59.2 29 59.2H71C72.5 59.2 73.8 60.4 73.8 62V72.5C73.8 74 72.5 75.3 71 75.3ZM31.8 69.8H68.3V64.8H31.8V69.8Z" fill="black"/>
</svg>
