<svg width="100" height="100" viewBox="0 0 100 100" fill="none" xmlns="http://www.w3.org/2000/svg">
<path d="M50.01 79.42L23.28 52.7C19.67 49.16 17.68 44.41 17.68 39.33C17.68 28.99 26.09 20.58 36.43 20.58C41.65 20.58 46.5 22.7 50 26.39C53.5 22.7 58.36 20.58 63.57 20.58C73.91 20.58 82.32 28.99 82.32 39.33C82.32 44.41 80.32 49.16 76.7 52.71L50.01 79.42ZM36.43 26.08C29.12 26.08 23.18 32.02 23.18 39.33C23.18 42.92 24.59 46.28 27.15 48.79L50.02 71.64L72.84 48.81C75.42 46.28 76.83 42.92 76.83 39.33C76.83 32.02 70.89 26.08 63.58 26.08C58.98 26.08 54.78 28.41 52.34 32.31L50 36.04L47.67 32.31C45.23 28.41 41.02 26.08 36.43 26.08Z" fill="black"/>
</svg>
