<svg width="100" height="100" viewBox="0 0 100 100" fill="none" xmlns="http://www.w3.org/2000/svg">
<path d="M75.99 50.01C75.99 53.82 76.01 57.64 75.99 61.45C75.95 68.77 70.34 75.02 63.07 75.88C62.46 75.95 61.84 75.99 61.22 75.99C53.69 76 46.16 76 38.63 76C31.5 76 25.26 70.65 24.19 63.61C24.07 62.81 24 61.99 24 61.18C23.99 53.74 24 46.29 24 38.85C24 31.85 28.66 25.95 35.49 24.38C36.56 24.13 37.68 24.02 38.77 24.02C46.26 23.99 53.74 24 61.23 24.01C68.44 24.02 74.53 29.13 75.77 36.24C75.93 37.15 75.98 38.09 75.98 39.02C76.01 42.68 76 46.35 75.99 50.01C76 50.01 75.99 50.01 75.99 50.01ZM50.01 29C46.26 29 42.51 29 38.76 29C33.34 29.01 29 33.35 29 38.78C29 46.27 29 53.75 29.01 61.24C29.01 61.84 29.06 62.46 29.18 63.05C30.09 67.74 34.04 71 38.83 71C46.28 71.01 53.74 71 61.19 71C61.63 71 62.08 70.98 62.52 70.92C67.43 70.25 71 66.17 71.01 61.21C71.02 53.75 71.02 46.28 71.01 38.82C71.01 38.21 70.96 37.58 70.84 36.98C69.94 32.28 65.97 29.02 61.18 29.01C57.44 29 53.73 29 50.01 29ZM36.44 50.01C36.44 42.54 42.5 36.48 49.98 36.45C57.44 36.43 63.54 42.53 63.54 50.02C63.54 57.49 57.47 63.56 49.99 63.55C42.52 63.55 36.44 57.47 36.44 50.01ZM41.44 50C41.43 54.7 45.27 58.54 49.97 58.55C54.69 58.56 58.53 54.74 58.54 50.04C58.55 45.31 54.74 41.47 50.01 41.45C45.31 41.43 41.45 45.28 41.44 50ZM60.73 36.24C60.72 37.97 62.09 39.37 63.82 39.38C65.54 39.39 66.95 37.99 66.95 36.27C66.95 34.56 65.57 33.17 63.86 33.17C62.13 33.16 60.74 34.53 60.73 36.24Z" fill="black"/>
</svg>
