<svg width="100" height="100" viewBox="0 0 100 100" fill="none" xmlns="http://www.w3.org/2000/svg">
<path d="M76.01 50C76.01 57.29 76.01 64.57 76.01 71.86C76.01 72.91 75.8 73.88 75.08 74.69C74.34 75.52 73.4 75.91 72.31 75.99C72.16 76 72.02 75.99 71.87 75.99C57.3 75.99 42.72 75.99 28.15 75.99C27.16 75.99 26.24 75.81 25.45 75.18C24.55 74.47 24.08 73.53 24.01 72.4C23.99 72.11 24 71.82 24 71.53C24 57.16 24 42.79 24 28.42C24 28.01 23.98 27.6 24.04 27.2C24.32 25.36 25.75 24.11 27.65 24.01C27.85 24 28.06 24.01 28.26 24.01C42.75 24.01 57.23 24.01 71.72 24.02C72.18 24.02 72.65 24.06 73.1 24.15C74.81 24.53 75.92 25.88 76 27.63C76.01 27.98 76.01 28.33 76.01 28.68C76.01 35.78 76.01 42.89 76.01 50ZM51.99 68.38C52.02 67.78 52.07 67.29 52.07 66.8C52.08 63.33 52.07 59.86 52.08 56.39C52.08 55.63 52.1 54.87 52.16 54.12C52.36 51.51 53.55 50.12 55.98 49.79C58.48 49.45 59.88 50.68 60.25 52.75C60.42 53.69 60.48 54.66 60.48 55.61C60.51 59.49 60.49 63.36 60.49 67.24C60.49 67.61 60.54 67.98 60.56 68.37C63.22 68.37 65.8 68.37 68.45 68.37C68.48 68.03 68.52 67.75 68.52 67.46C68.52 63.18 68.55 58.89 68.51 54.61C68.49 52.66 68.4 50.71 67.88 48.81C67.03 45.7 65.12 43.64 61.89 43.04C60.67 42.81 59.39 42.72 58.16 42.81C55.7 43 53.64 44.07 52.14 46.09C52.05 46.21 51.94 46.33 51.76 46.55C51.76 45.68 51.77 44.95 51.76 44.23C51.75 43.41 51.68 43.34 50.85 43.34C48.9 43.33 46.94 43.33 44.99 43.34C44.74 43.34 44.49 43.39 44.26 43.42C44.06 44.58 44.12 67.75 44.32 68.39C46.84 68.38 49.36 68.38 51.99 68.38ZM39.42 68.38C39.45 68.08 39.5 67.8 39.5 67.52C39.5 59.77 39.51 52.03 39.5 44.28C39.5 43.4 39.43 43.34 38.55 43.34C36.51 43.33 34.47 43.34 32.43 43.34C32.18 43.34 31.92 43.39 31.63 43.42C31.63 51.77 31.63 60.05 31.63 68.38C34.24 68.38 36.78 68.38 39.42 68.38ZM40.1 35.62C40.11 33.05 38.12 31.01 35.54 30.96C33.09 30.91 30.87 33.09 30.91 35.58C30.96 37.89 32.58 40.06 35.45 40.19C37.95 40.31 40.09 38.15 40.1 35.62Z" fill="black"/>
</svg>
