<svg width="100" height="100" viewBox="0 0 100 100" fill="none" xmlns="http://www.w3.org/2000/svg">
<path d="M78.75 50C78.75 65.85 65.85 78.75 50 78.75C34.15 78.75 21.25 65.85 21.25 50C21.25 34.15 34.15 21.25 50 21.25C65.85 21.25 78.75 34.15 78.75 50ZM37 44.34L43.5 44.92C44.08 42.08 46.05 40.57 49.42 40.57C52.61 40.57 54.64 41.96 54.64 44.51V46.19L45.36 48.16C39.85 49.32 36.49 52.05 36.49 56.92C36.49 61.79 39.85 65.21 45.02 65.21C49.08 65.21 52.56 63.06 53.95 59.76H54.65C54.77 62.95 57.2 65.04 60.97 65.04C62.59 65.04 64.39 64.69 65.32 64.17V58.54C64.8 58.83 64.1 59 63.46 59C61.89 59 61.08 58.19 61.08 56.74V44.52C61.08 38.66 56.44 34.78 49.48 34.78C42.63 34.78 37.76 38.6 37 44.34ZM43.03 56.18C43.03 54.21 44.36 53.28 46.8 52.76L54.63 51.08V53.05C54.63 57.11 51.85 59.49 47.5 59.49C44.43 59.48 43.03 58.26 43.03 56.18Z" fill="black"/>
</svg>
