<svg width="100" height="100" viewBox="0 0 100 100" fill="none" xmlns="http://www.w3.org/2000/svg">
<path d="M39.5 47.68C43.77 47.68 47.25 44.2 47.25 39.93C47.25 35.66 43.77 32.18 39.5 32.18C35.23 32.18 31.75 35.66 31.75 39.93C31.75 44.2 35.23 47.68 39.5 47.68ZM39.5 37.68C40.74 37.68 41.75 38.69 41.75 39.93C41.75 41.17 40.74 42.18 39.5 42.18C38.26 42.18 37.25 41.17 37.25 39.93C37.25 38.69 38.26 37.68 39.5 37.68Z" fill="black"/>
<path d="M72.75 47.18V54.68H58.25V39.93H58.24C58.18 29.58 49.8 21.18 39.5 21.18C29.2 21.18 20.81 29.58 20.76 39.93H20.75V57.68H58.25H72.75H78.25V47.18H72.75ZM39.5 26.68C46.81 26.68 52.75 32.67 52.75 40.03V52.18H26.25V40.03C26.25 32.67 32.2 26.68 39.5 26.68Z" fill="black"/>
<path d="M67.37 64.89L71.88 69.4H27.12L31.63 64.89L29.51 62.77L21.38 70.9L29.51 79.03L31.63 76.91L27.12 72.4H71.88L67.37 76.91L69.49 79.03L77.62 70.9L69.49 62.77L67.37 64.89Z" fill="black"/>
</svg>
