<svg width="100" height="100" viewBox="0 0 100 100" fill="none" xmlns="http://www.w3.org/2000/svg">
<path d="M61 16.25H39C34.73 16.25 31.25 19.73 31.25 24V76C31.25 80.27 34.73 83.75 39 83.75H61C65.27 83.75 68.75 80.27 68.75 76V24C68.75 19.73 65.27 16.25 61 16.25ZM63.25 76C63.25 77.24 62.24 78.25 61 78.25H39C37.76 78.25 36.75 77.24 36.75 76V24C36.75 22.76 37.76 21.75 39 21.75H61C62.24 21.75 63.25 22.76 63.25 24V76ZM53 71C53 72.66 51.66 74 50 74C48.34 74 47 72.66 47 71C47 69.34 48.34 68 50 68C51.66 68 53 69.34 53 71Z" fill="black"/>
</svg>
