<svg width="100" height="100" viewBox="0 0 100 100" fill="none" xmlns="http://www.w3.org/2000/svg">
<path d="M31.25 55C31.25 65.34 39.66 73.75 50 73.75C60.34 73.75 68.75 65.34 68.75 55C68.75 44.66 60.34 36.25 50 36.25C39.66 36.25 31.25 44.66 31.25 55ZM63.25 55C63.25 62.31 57.31 68.25 50 68.25C42.69 68.25 36.75 62.31 36.75 55C36.75 47.69 42.69 41.75 50 41.75C57.31 41.75 63.25 47.69 63.25 55ZM83.75 26.25V16.25H63.25V26.25H11.25V83.75H88.75V26.25H83.75ZM68.75 21.75H78.25V26.25H68.75V21.75ZM83.25 78.25H16.75V31.75H63.25H83.25V78.25Z" fill="black"/>
</svg>
