<svg width="100" height="100" viewBox="0 0 100 100" fill="none" xmlns="http://www.w3.org/2000/svg">
<path d="M50 78.75C34.15 78.75 21.25 65.85 21.25 50C21.25 34.15 34.15 21.25 50 21.25C65.85 21.25 78.75 34.15 78.75 50C78.75 65.85 65.85 78.75 50 78.75ZM50 26.75C37.18 26.75 26.75 37.18 26.75 50C26.75 62.82 37.18 73.25 50 73.25C62.82 73.25 73.25 62.82 73.25 50C73.25 37.18 62.82 26.75 50 26.75ZM40 35.5C37.24 35.5 35 37.74 35 40.5C35 43.26 37.24 45.5 40 45.5C42.76 45.5 45 43.26 45 40.5C45 37.74 42.76 35.5 40 35.5ZM60 35.5C57.24 35.5 55 37.74 55 40.5C55 43.26 57.24 45.5 60 45.5C62.76 45.5 65 43.26 65 40.5C65 37.74 62.76 35.5 60 35.5ZM68.75 50H63.25C63.25 57.31 57.31 63.25 50 63.25C42.69 63.25 36.75 57.31 36.75 50H31.25C31.25 60.34 39.66 68.75 50 68.75C60.34 68.75 68.75 60.34 68.75 50Z" fill="black"/>
</svg>
