<svg width="100" height="100" viewBox="0 0 100 100" fill="none" xmlns="http://www.w3.org/2000/svg">
<path d="M81 52.75V47.25H68.53C68.32 45.81 67.95 44.43 67.43 43.12L78.23 36.89L75.48 32.13L64.68 38.37C63.79 37.25 62.78 36.24 61.66 35.35L67.9 24.55L63.14 21.8L56.91 32.6C55.6 32.08 54.21 31.71 52.78 31.5V19H47.28V31.47C45.84 31.68 44.46 32.05 43.15 32.57L36.92 21.77L32.16 24.52L38.4 35.32C37.28 36.21 36.27 37.22 35.38 38.34L24.58 32.1L21.83 36.86L32.63 43.09C32.11 44.4 31.74 45.79 31.53 47.22H19V52.72H31.47C31.68 54.16 32.05 55.54 32.57 56.85L21.77 63.08L24.52 67.84L35.32 61.6C36.21 62.72 37.22 63.73 38.34 64.62L32.1 75.42L36.86 78.17L43.09 67.37C44.4 67.89 45.79 68.26 47.22 68.47V81H52.72V68.53C54.16 68.32 55.54 67.95 56.85 67.43L63.08 78.23L67.84 75.48L61.6 64.68C62.72 63.79 63.73 62.78 64.62 61.66L75.42 67.9L78.17 63.14L67.37 56.91C67.89 55.6 68.26 54.21 68.47 52.78H81V52.75ZM36.75 50C36.75 42.69 42.69 36.75 50 36.75C57.31 36.75 63.25 42.69 63.25 50C63.25 57.31 57.31 63.25 50 63.25C42.69 63.25 36.75 57.31 36.75 50Z" fill="black"/>
</svg>
